<svg id="Layer_1" version="1.1" viewBox="0 0 18 18" x="0px" xml:space="preserve" xmlns="http://www.w3.org/2000/svg" xmlns:xlink="http://www.w3.org/1999/xlink" y="0px" data-test="apple-logo" class="layout-onboarding-auth__apple-icon"><path d="M8.8,5.2c-0.7,0-1.8-0.8-3-0.8c-1.5,0-2.9,0.9-3.7,2.3c-1.6,2.8-0.4,6.8,1.1,9.1C4,16.8,4.9,18,6.1,18c1.1,0,1.6-0.7,3-0.7
    c1.4,0,1.8,0.7,3,0.7c1.2,0,2-1.1,2.8-2.2c0.9-1.3,1.2-2.5,1.2-2.6c0,0-2.4-0.9-2.4-3.6c0-2.3,1.9-3.4,1.9-3.4
    c-1.1-1.6-2.7-1.7-3.3-1.8C10.7,4.2,9.5,5.2,8.8,5.2z M11.3,2.9c0.6-0.8,1.1-1.8,0.9-2.9c-0.9,0-2,0.6-2.6,1.4C9,2,8.5,3.1,8.6,4.1
    C9.6,4.2,10.7,3.6,11.3,2.9"></path></svg>